<?xml version="1.0" encoding="UTF-8"?>
<svg xmlns="http://www.w3.org/2000/svg" xmlns:xlink="http://www.w3.org/1999/xlink" viewBox="0 0 64 64" width="64px" height="64px">
<g id="surface41019291">
<path style=" stroke:none;fill-rule:nonzero;fill:rgb(91.764706%,4.313726%,71.764708%);fill-opacity:1;" d="M 38 36 L 44 36 C 44.550781 36 45 35.550781 45 35 L 45 27 C 45 26.449219 44.550781 26 44 26 L 38 26 C 37.449219 26 37 26.449219 37 27 L 37 35 C 37 35.550781 37.449219 36 38 36 Z M 38 36 "/>
<path style=" stroke:none;fill-rule:nonzero;fill:rgb(49.803922%,2.352941%,39.215687%);fill-opacity:1;" d="M 49 10 L 47 10 C 47 8.898438 46.101562 8 45 8 L 37 8 C 37 6.898438 36.101562 6 35 6 L 29 6 C 27.898438 6 27 6.898438 27 8 L 19 8 C 17.898438 8 17 8.898438 17 10 L 15 10 C 13.898438 10 13 10.898438 13 12 L 13 56 C 13 57.101562 13.898438 58 15 58 L 49 58 C 50.101562 58 51 57.101562 51 56 L 51 12 C 51 10.898438 50.101562 10 49 10 Z M 29 8 L 35 8 L 35 13 C 35 14.652344 33.652344 16 32 16 C 30.347656 16 29 14.652344 29 13 Z M 15 12 L 27 12 L 27 13 C 27 15.757812 29.242188 18 32 18 C 34.757812 18 37 15.757812 37 13 L 37 12 L 49 12 L 49 44 L 39 44 C 37.898438 44 37 44.898438 37 46 L 37 56 L 15 56 Z M 39 56 L 39 46 L 49 46 L 49 56 Z M 39 56 "/>
<path style=" stroke:none;fill-rule:nonzero;fill:rgb(49.803922%,2.352941%,39.215687%);fill-opacity:1;" d="M 19 22 L 45 22 L 45 24 L 19 24 Z M 19 22 "/>
<path style=" stroke:none;fill-rule:nonzero;fill:rgb(49.803922%,2.352941%,39.215687%);fill-opacity:1;" d="M 19 26 L 33 26 L 33 28 L 19 28 Z M 19 26 "/>
<path style=" stroke:none;fill-rule:nonzero;fill:rgb(49.803922%,2.352941%,39.215687%);fill-opacity:1;" d="M 19 30 L 33 30 L 33 32 L 19 32 Z M 19 30 "/>
<path style=" stroke:none;fill-rule:nonzero;fill:rgb(49.803922%,2.352941%,39.215687%);fill-opacity:1;" d="M 19 34 L 33 34 L 33 36 L 19 36 Z M 19 34 "/>
<path style=" stroke:none;fill-rule:nonzero;fill:rgb(49.803922%,2.352941%,39.215687%);fill-opacity:1;" d="M 37 38 L 45 38 L 45 40 L 37 40 Z M 37 38 "/>
<path style=" stroke:none;fill-rule:nonzero;fill:rgb(49.803922%,2.352941%,39.215687%);fill-opacity:1;" d="M 19 48 L 21 48 L 21 52 L 19 52 Z M 19 48 "/>
<path style=" stroke:none;fill-rule:nonzero;fill:rgb(49.803922%,2.352941%,39.215687%);fill-opacity:1;" d="M 23 48 L 25 48 L 25 52 L 23 52 Z M 23 48 "/>
<path style=" stroke:none;fill-rule:nonzero;fill:rgb(49.803922%,2.352941%,39.215687%);fill-opacity:1;" d="M 27 48 L 29 48 L 29 52 L 27 52 Z M 27 48 "/>
<path style=" stroke:none;fill-rule:nonzero;fill:rgb(49.803922%,2.352941%,39.215687%);fill-opacity:1;" d="M 31 48 L 33 48 L 33 52 L 31 52 Z M 31 48 "/>
<path style=" stroke:none;fill-rule:nonzero;fill:rgb(49.803922%,2.352941%,39.215687%);fill-opacity:1;" d="M 41 50 L 41 52 L 43 52 L 43 50 L 45 50 L 45 48 L 43 48 C 41.898438 48 41 48.898438 41 50 Z M 41 50 "/>
<path style=" stroke:none;fill-rule:nonzero;fill:rgb(49.803922%,2.352941%,39.215687%);fill-opacity:1;" d="M 19 38 L 33 38 L 33 40 L 19 40 Z M 19 38 "/>
</g>
</svg>
