<?xml version="1.0" encoding="UTF-8"?>
<svg xmlns="http://www.w3.org/2000/svg" xmlns:xlink="http://www.w3.org/1999/xlink" viewBox="0 0 48 48" width="48px" height="48px">
<g id="surface467788">
<path style=" stroke:none;fill-rule:nonzero;fill:rgb(0%,0%,0%);fill-opacity:1;" d="M 11.519531 48 C 5.15625 48 0 42.84375 0 36.480469 L 0 11.519531 C 0 5.15625 5.15625 0 11.519531 0 L 36.480469 0 C 42.84375 0 48 5.15625 48 11.519531 L 48 36.480469 C 48 42.84375 42.84375 48 36.480469 48 Z M 35.519531 47.039062 C 41.882812 47.039062 47.039062 41.882812 47.039062 35.519531 L 47.039062 12.480469 C 47.039062 6.117188 41.882812 0.960938 35.519531 0.960938 L 12.480469 0.960938 C 6.117188 0.960938 0.960938 6.117188 0.960938 12.480469 L 0.960938 35.519531 C 0.960938 41.882812 6.117188 47.039062 12.480469 47.039062 Z M 35.519531 47.039062 "/>
<path style=" stroke:none;fill-rule:nonzero;fill:rgb(0%,0%,0%);fill-opacity:1;" d="M 18.253906 37.640625 L 6.589844 25.976562 C 5.988281 25.375 5.988281 24.402344 6.589844 23.800781 L 9.710938 20.679688 C 10.3125 20.078125 11.285156 20.078125 11.886719 20.679688 L 23.550781 32.34375 C 24.152344 32.945312 24.152344 33.917969 23.550781 34.519531 L 20.429688 37.640625 C 19.828125 38.238281 18.855469 38.238281 18.253906 37.640625 Z M 18.253906 37.640625 "/>
<path style=" stroke:none;fill-rule:nonzero;fill:rgb(0%,0%,0%);fill-opacity:1;" d="M 15.132812 32.34375 L 36.113281 11.359375 C 36.714844 10.757812 37.6875 10.757812 38.289062 11.359375 L 41.410156 14.480469 C 42.011719 15.082031 42.011719 16.054688 41.410156 16.65625 L 20.429688 37.640625 C 19.828125 38.242188 18.855469 38.242188 18.253906 37.640625 L 15.132812 34.519531 C 14.53125 33.917969 14.53125 32.945312 15.132812 32.34375 Z M 15.132812 32.34375 "/>
</g>
</svg>
